Nobile-Bold.ufo
<glyph name="parenright" format="1">
  <advance width="827"/>
  <unicode hex="0029"/>
  <outline>
    <contour>
      <point x="233" y="-305" type="line"/>
      <point x="495" y="-107"/>
      <point x="688" y="251"/>
      <point x="688" y="694" type="curve" smooth="yes"/>
      <point x="688" y="1132"/>
      <point x="492" y="1482"/>
      <point x="229" y="1679" type="curve"/>
      <point x="70" y="1468" type="line"/>
      <point x="245" y="1300"/>
      <point x="369" y="1021"/>
      <point x="369" y="694" type="curve" smooth="yes"/>
      <point x="369" y="368"/>
      <point x="249" y="71"/>
      <point x="74" y="-94" type="curve"/>
    </contour>
  </outline>
</glyph>
<glyph name="slash" format="1">
  <advance width="915"/>
  <unicode hex="002F"/>
  <outline>
    <contour>
      <point x="361" y="-147" type="line"/>
      <point x="937" y="1578" type="line"/>
      <point x="656" y="1667" type="line"/>
      <point x="85" y="-60" type="line"/>
    </contour>
  </outline>
</glyph>
<glyph name="five" format="1">
  <advance width="1174"/>
  <unicode hex="0035"/>
  <outline>
    <contour>
      <point x="548" y="-183" type="curve" smooth="yes"/>
      <point x="838" y="-183"/>
      <point x="1049" y="2"/>
      <point x="1049" y="278" type="curve" smooth="yes"/>
      <point x="1049" y="560"/>
      <point x="872" y="741"/>
      <point x="584" y="741" type="curve" smooth="yes"/>
      <point x="506" y="741"/>
      <point x="441" y="703"/>
      <point x="441" y="699" type="curve" smooth="yes"/>
      <point x="441" y="924" type="line"/>
      <point x="965" y="924" type="line"/>
      <point x="965" y="1169" type="line"/>
      <point x="160" y="1169" type="line"/>
      <point x="160" y="549" type="line"/>
      <point x="300" y="425" type="line"/>
      <point x="399" y="479"/>
      <point x="483" y="506"/>
      <point x="550" y="506" type="curve" smooth="yes"/>
      <point x="680" y="506"/>
      <point x="750" y="418"/>
      <point x="750" y="280" type="curve" smooth="yes"/>
      <point x="750" y="150"/>
      <point x="669" y="86"/>
      <point x="526" y="86" type="curve" smooth="yes"/>
      <point x="381.732" y="86"/>
      <point x="271.228" y="126.712"/>
      <point x="171" y="161" type="curve"/>
      <point x="129" y="-90" type="line"/>
      <point x="250" y="-143"/>
      <point x="414" y="-183"/>
    </contour>
  </outline>
</glyph>
<glyph name="nine" format="1">
  <advance width="1265"/>
  <unicode hex="0039"/>
  <outline>
    <contour>
      <point x="394" y="-270" type="line"/>
      <point x="728" y="-196"/>
      <point x="1170" y="104"/>
      <point x="1170" y="633" type="curve" smooth="yes"/>
      <point x="1170" y="983"/>
      <point x="959" y="1188"/>
      <point x="604" y="1188" type="curve" smooth="yes"/>
      <point x="317" y="1188"/>
      <point x="116" y="990"/>
      <point x="116" y="706" type="curve" smooth="yes"/>
      <point x="116" y="449.838"/>
      <point x="284.654" y="245.818"/>
      <point x="557.041" y="245.818" type="curve" smooth="yes"/>
      <point x="627.185" y="245.818"/>
      <point x="704.207" y="259.348"/>
      <point x="787" y="289" type="curve"/>
      <point x="698.483" y="152.925"/>
      <point x="535.654" y="40.9925"/>
      <point x="316" y="-4" type="curve"/>
    </contour>
    <contour>
      <point x="637.054" y="485.967" type="curve" smooth="yes"/>
      <point x="515.433" y="485.967"/>
      <point x="431" y="530.619"/>
      <point x="431" y="684" type="curve"/>
      <point x="433" y="849"/>
      <point x="472" y="928"/>
      <point x="626" y="928" type="curve" smooth="yes"/>
      <point x="787" y="928"/>
      <point x="846" y="812"/>
      <point x="849" y="648" type="curve"/>
      <point x="834" y="510" type="line"/>
      <point x="763.224" y="496.386"/>
      <point x="695.801" y="485.967"/>
    </contour>
  </outline>
</glyph>
<glyph name="semicolon" format="1">
  <advance width="749"/>
  <unicode hex="003B"/>
  <outline>
    <contour>
      <point x="256" y="-307" type="line"/>
      <point x="424" y="-257"/>
      <point x="607" y="-187"/>
      <point x="607" y="53" type="curve" smooth="yes"/>
      <point x="607" y="415" type="line"/>
      <point x="193" y="415" type="line"/>
      <point x="193" y="0" type="line"/>
      <point x="371" y="0" type="line"/>
      <point x="371" y="-102"/>
      <point x="321" y="-147"/>
      <point x="194" y="-193" type="curve"/>
    </contour>
    <contour>
      <point x="191" y="736" type="line"/>
      <point x="605" y="736" type="line"/>
      <point x="605" y="1164" type="line"/>
      <point x="191" y="1164" type="line"/>
    </contour>
  </outline>
</glyph>
<glyph name="A" format="1">
  <advance width="1480"/>
  <unicode hex="0041"/>
  <outline>
    <contour>
      <point x="17" y="0" type="line"/>
      <point x="378" y="0" type="line"/>
      <point x="489" y="349" type="line"/>
      <point x="991" y="349" type="line"/>
      <point x="1102" y="0" type="line"/>
      <point x="1463" y="0" type="line"/>
      <point x="944" y="1578" type="line"/>
      <point x="537" y="1578" type="line"/>
    </contour>
    <contour>
      <point x="536" y="527" type="line"/>
      <point x="746" y="1197" type="line"/>
      <point x="944" y="527" type="line"/>
    </contour>
    <contour>
      <point x="740" y="1578" type="move" name="top"/>
    </contour>
    <contour>
      <point x="1344" y="10" type="move" name="ogonek"/>
    </contour>
  </outline>
</glyph>
<glyph name="L" format="1">
  <advance width="1187"/>
  <unicode hex="004C"/>
  <outline>
    <contour>
      <point x="167" y="0" type="line"/>
      <point x="1158" y="0" type="line"/>
      <point x="1158" y="268" type="line"/>
      <point x="535" y="268" type="line"/>
      <point x="535" y="1578" type="line"/>
      <point x="167" y="1578" type="line"/>
    </contour>
    <contour>
      <point x="620" y="1578" type="move" name="top"/>
    </contour>
    <contour>
      <point x="620" y="0" type="move" name="bottom"/>
    </contour>
  </outline>
</glyph>
<glyph name="R" format="1">
  <advance width="1502"/>
  <unicode hex="0052"/>
  <outline>
    <contour>
      <point x="167" y="0" type="line"/>
      <point x="536" y="0" type="line"/>
      <point x="536" y="666" type="line"/>
      <point x="654" y="666" type="line" smooth="yes"/>
      <point x="867" y="666"/>
      <point x="978" y="608"/>
      <point x="999" y="397" type="curve" smooth="yes"/>
      <point x="1039" y="0" type="line"/>
      <point x="1404" y="0" type="line"/>
      <point x="1364" y="472" type="line" smooth="yes"/>
      <point x="1345" y="702"/>
      <point x="1202" y="784"/>
      <point x="975" y="806" type="curve"/>
      <point x="1217" y="821"/>
      <point x="1392" y="906"/>
      <point x="1392" y="1163" type="curve" smooth="yes"/>
      <point x="1392" y="1436"/>
      <point x="1292" y="1578"/>
      <point x="665" y="1578" type="curve" smooth="yes"/>
      <point x="167" y="1578" type="line"/>
    </contour>
    <contour>
      <point x="536" y="899" type="line"/>
      <point x="536" y="1354" type="line"/>
      <point x="621" y="1354" type="line" smooth="yes"/>
      <point x="902" y="1354"/>
      <point x="1024" y="1307"/>
      <point x="1024" y="1120" type="curve" smooth="yes"/>
      <point x="1024" y="938"/>
      <point x="866" y="899"/>
      <point x="579" y="899" type="curve" smooth="yes"/>
    </contour>
    <contour>
      <point x="759" y="1578" type="move" name="top"/>
    </contour>
    <contour>
      <point x="759" y="0" type="move" name="bottom"/>
    </contour>
  </outline>
</glyph>
<glyph name="S" format="1">
  <advance width="1325"/>
  <unicode hex="0053"/>
  <outline>
    <contour>
      <point x="723" y="-28" type="curve" smooth="yes"/>
      <point x="1072" y="-28"/>
      <point x="1243" y="193"/>
      <point x="1243" y="428" type="curve" smooth="yes"/>
      <point x="1243" y="658"/>
      <point x="1156" y="773"/>
      <point x="867" y="907" type="curve" smooth="yes"/>
      <point x="602" y="1030" type="line" smooth="yes"/>
      <point x="467" y="1093"/>
      <point x="448" y="1116"/>
      <point x="448" y="1175" type="curve" smooth="yes"/>
      <point x="448" y="1275"/>
      <point x="534" y="1311"/>
      <point x="673" y="1311" type="curve" smooth="yes"/>
      <point x="821" y="1311"/>
      <point x="976" y="1258"/>
      <point x="1076" y="1211" type="curve"/>
      <point x="1190" y="1488" type="line"/>
      <point x="1085" y="1540"/>
      <point x="877" y="1602"/>
      <point x="672" y="1602" type="curve" smooth="yes"/>
      <point x="381" y="1602"/>
      <point x="99" y="1497"/>
      <point x="99" y="1172" type="curve" smooth="yes"/>
      <point x="99" y="954"/>
      <point x="189" y="858"/>
      <point x="421" y="750" type="curve" smooth="yes"/>
      <point x="721" y="611" type="line" smooth="yes"/>
      <point x="883" y="536"/>
      <point x="900" y="482"/>
      <point x="900" y="416" type="curve" smooth="yes"/>
      <point x="900" y="318"/>
      <point x="849" y="249"/>
      <point x="664" y="249" type="curve" smooth="yes"/>
      <point x="483" y="249"/>
      <point x="299" y="363"/>
      <point x="245" y="404" type="curve"/>
      <point x="129" y="117" type="line"/>
      <point x="304" y="7"/>
      <point x="516" y="-28"/>
    </contour>
    <contour>
      <point x="671" y="1578" type="move" name="top"/>
    </contour>
    <contour>
      <point x="671" y="0" type="move" name="bottom"/>
    </contour>
  </outline>
</glyph>
<glyph name="Z" format="1">
  <advance width="1231"/>
  <unicode hex="005A"/>
  <outline>
    <contour>
      <point x="53" y="0" type="line"/>
      <point x="1163" y="0" type="line"/>
      <point x="1163" y="268" type="line"/>
      <point x="451" y="268" type="line"/>
      <point x="1161" y="1354" type="line"/>
      <point x="1161" y="1578" type="line"/>
      <point x="53" y="1578" type="line"/>
      <point x="53" y="1310" type="line"/>
      <point x="746" y="1310" type="line"/>
      <point x="53" y="251" type="line"/>
    </contour>
    <contour>
      <point x="616" y="1578" type="move" name="top"/>
    </contour>
  </outline>
</glyph>
<glyph name="c" format="1">
  <advance width="1074"/>
  <unicode hex="0063"/>
  <outline>
    <contour>
      <point x="688" y="-26" type="curve" smooth="yes"/>
      <point x="822" y="-26"/>
      <point x="952" y="14"/>
      <point x="1044" y="95" type="curve"/>
      <point x="959" y="280" type="line"/>
      <point x="879" y="229"/>
      <point x="797" y="204"/>
      <point x="707" y="211" type="curve" smooth="yes"/>
      <point x="522" y="225"/>
      <point x="427" y="399"/>
      <point x="427" y="601" type="curve" smooth="yes"/>
      <point x="427" y="802"/>
      <point x="527" y="943"/>
      <point x="698" y="960" type="curve" smooth="yes"/>
      <point x="801" y="970"/>
      <point x="902" y="912"/>
      <point x="947" y="881" type="curve"/>
      <point x="1025" y="1096" type="line"/>
      <point x="927" y="1154"/>
      <point x="841" y="1196"/>
      <point x="670" y="1196" type="curve" smooth="yes"/>
      <point x="325" y="1196"/>
      <point x="74" y="928"/>
      <point x="74" y="571" type="curve" smooth="yes"/>
      <point x="74" y="176"/>
      <point x="346" y="-26"/>
    </contour>
    <contour>
      <point x="540" y="1164" type="move" name="top"/>
    </contour>
    <contour>
      <point x="540" y="0" type="move" name="bottom"/>
    </contour>
  </outline>
</glyph>
<glyph name="m" format="1">
  <advance width="1936"/>
  <unicode hex="006D"/>
  <outline>
    <contour>
      <point x="140" y="0" type="line"/>
      <point x="491" y="0" type="line"/>
      <point x="491" y="831" type="line"/>
      <point x="552" y="909"/>
      <point x="605" y="960"/>
      <point x="689" y="960" type="curve" smooth="yes"/>
      <point x="768" y="960"/>
      <point x="804" y="914"/>
      <point x="804" y="792" type="curve" smooth="yes"/>
      <point x="804" y="0" type="line"/>
      <point x="1155" y="0" type="line"/>
      <point x="1155" y="862" type="line"/>
      <point x="1228" y="933"/>
      <point x="1278" y="960"/>
      <point x="1341" y="960" type="curve" smooth="yes"/>
      <point x="1420" y="960"/>
      <point x="1460" y="901"/>
      <point x="1460" y="782" type="curve" smooth="yes"/>
      <point x="1460" y="0" type="line"/>
      <point x="1811" y="0" type="line"/>
      <point x="1811" y="755" type="line" smooth="yes"/>
      <point x="1811" y="1036"/>
      <point x="1689" y="1196"/>
      <point x="1450" y="1196" type="curve" smooth="yes"/>
      <point x="1331" y="1196"/>
      <point x="1206" y="1144"/>
      <point x="1095" y="1022" type="curve"/>
      <point x="1032" y="1151"/>
      <point x="945" y="1196"/>
      <point x="796" y="1196" type="curve" smooth="yes"/>
      <point x="684" y="1196"/>
      <point x="560" y="1123"/>
      <point x="456" y="982" type="curve"/>
      <point x="378" y="1164" type="line"/>
      <point x="140" y="1164" type="line"/>
    </contour>
  </outline>
</glyph>
<glyph name="u" format="1">
  <advance width="1308"/>
  <unicode hex="0075"/>
  <outline>
    <contour>
      <point x="490" y="-28" type="curve" smooth="yes"/>
      <point x="626" y="-28"/>
      <point x="769" y="43"/>
      <point x="834" y="153" type="curve"/>
      <point x="902" y="0" type="line"/>
      <point x="1168" y="0" type="line"/>
      <point x="1168" y="1164" type="line"/>
      <point x="817" y="1164" type="line"/>
      <point x="817" y="304" type="line"/>
      <point x="786" y="256"/>
      <point x="693" y="202"/>
      <point x="615" y="202" type="curve" smooth="yes"/>
      <point x="541" y="202"/>
      <point x="476" y="250"/>
      <point x="476" y="399" type="curve" smooth="yes"/>
      <point x="476" y="1164" type="line"/>
      <point x="125" y="1164" type="line"/>
      <point x="125" y="449" type="line" smooth="yes"/>
      <point x="125" y="102"/>
      <point x="307" y="-28"/>
    </contour>
    <contour>
      <point x="654" y="1164" type="move" name="top"/>
    </contour>
    <contour>
      <point x="1177" y="10" type="move" name="ogonek"/>
    </contour>
  </outline>
</glyph>
<glyph name="bar" format="1">
  <advance width="813"/>
  <unicode hex="007C"/>
  <outline>
    <contour>
      <point x="252" y="-147" type="line"/>
      <point x="560" y="-147" type="line"/>
      <point x="560" y="1667" type="line"/>
      <point x="252" y="1667" type="line"/>
    </contour>
  </outline>
</glyph>
<glyph name="macron" format="1">
  <advance width="659"/>
  <unicode hex="00AF"/>
  <outline>
    <contour>
      <point x="-341" y="122" type="line"/>
      <point x="341" y="122" type="line"/>
      <point x="341" y="249" type="line"/>
      <point x="-341" y="249" type="line"/>
    </contour>
    <contour>
      <point x="0" y="1164" type="move" name="_top"/>
    </contour>
  </outline>
</glyph>
<glyph name="paragraph" format="1">
  <advance width="1364"/>
  <unicode hex="00B6"/>
  <outline>
    <contour>
      <point x="638" y="0" type="line"/>
      <point x="897" y="0" type="line"/>
      <point x="897" y="1428" type="line"/>
      <point x="1032" y="1428" type="line"/>
      <point x="1032" y="0" type="line"/>
      <point x="1288" y="0" type="line"/>
      <point x="1288" y="1577" type="line"/>
      <point x="682" y="1577" type="line" smooth="yes"/>
      <point x="411" y="1577"/>
      <point x="79" y="1523"/>
      <point x="79" y="1155" type="curve" smooth="yes"/>
      <point x="79" y="809"/>
      <point x="343" y="711"/>
      <point x="638" y="711" type="curve"/>
    </contour>
  </outline>
</glyph>
<glyph name="onequarter" format="1">
  <advance width="1975"/>
  <unicode hex="00BC"/>
  <outline>
    <contour>
      <point x="1489" y="-125" type="line"/>
      <point x="1733" y="-125" type="line"/>
      <point x="1733" y="96" type="line"/>
      <point x="1872" y="96" type="line"/>
      <point x="1872" y="303" type="line"/>
      <point x="1733" y="303" type="line"/>
      <point x="1733" y="970" type="line"/>
      <point x="1526" y="1023" type="line"/>
      <point x="1007" y="257" type="line"/>
      <point x="1040" y="96" type="line"/>
      <point x="1489" y="96" type="line"/>
    </contour>
    <contour>
      <point x="258" y="411" type="line"/>
      <point x="522" y="411" type="line"/>
      <point x="522" y="1333" type="line"/>
      <point x="344" y="1373" type="line"/>
      <point x="58" y="1261" type="line"/>
      <point x="133" y="1071" type="line"/>
      <point x="258" y="1125" type="line"/>
    </contour>
    <contour>
      <point x="666" y="-107" type="line"/>
      <point x="1379" y="1458" type="line"/>
      <point x="1153" y="1541" type="line"/>
      <point x="447" y="-29" type="line"/>
    </contour>
    <contour>
      <point x="1313" y="301" type="line"/>
      <point x="1489" y="597" type="line"/>
      <point x="1489" y="301" type="line"/>
    </contour>
  </outline>
</glyph>
<glyph name="Thorn" format="1">
  <advance width="1289"/>
  <unicode hex="00DE"/>
  <outline>
    <contour>
      <point x="100" y="-219" type="line"/>
      <point x="451" y="-219" type="line"/>
      <point x="451" y="165" type="line"/>
      <point x="724" y="165" type="line" smooth="yes"/>
      <point x="1015" y="165"/>
      <point x="1211" y="359.611"/>
      <point x="1211" y="706" type="curve" smooth="yes"/>
      <point x="1211" y="1051.35"/>
      <point x="1061" y="1299"/>
      <point x="736" y="1299" type="curve" smooth="yes"/>
      <point x="450" y="1299" type="line"/>
      <point x="450" y="1578" type="line"/>
      <point x="100" y="1578" type="line"/>
    </contour>
    <contour>
      <point x="451" y="399" type="line"/>
      <point x="451" y="1063" type="line"/>
      <point x="656" y="1063" type="line" smooth="yes"/>
      <point x="791" y="1063"/>
      <point x="858" y="951.686"/>
      <point x="858" y="730" type="curve" smooth="yes"/>
      <point x="858" y="600.633"/>
      <point x="854" y="399"/>
      <point x="687" y="399" type="curve" smooth="yes"/>
    </contour>
  </outline>
</glyph>
<glyph name="eth" format="1">
  <advance width="1262"/>
  <unicode hex="00F0"/>
  <outline>
    <contour>
      <point x="585" y="-16" type="curve" smooth="yes"/>
      <point x="953" y="-16"/>
      <point x="1184" y="171"/>
      <point x="1184" y="612" type="curve" smooth="yes"/>
      <point x="1184" y="992"/>
      <point x="1075" y="1236"/>
      <point x="927" y="1424" type="curve"/>
      <point x="1143" y="1494" type="line"/>
      <point x="1101" y="1644" type="line"/>
      <point x="807" y="1549" type="line"/>
      <point x="807" y="1549"/>
      <point x="634.0" y="1685.0"/>
      <point x="531" y="1752" type="curve"/>
      <point x="381" y="1575" type="line"/>
      <point x="430" y="1547"/>
      <point x="482" y="1509"/>
      <point x="535" y="1462" type="curve"/>
      <point x="383" y="1413" type="line"/>
      <point x="425" y="1263" type="line"/>
      <point x="659" y="1338" type="line"/>
      <point x="754" y="1234"/>
      <point x="822" y="1117"/>
      <point x="834" y="1046" type="curve"/>
      <point x="766" y="1139"/>
      <point x="663" y="1186"/>
      <point x="525" y="1186" type="curve" smooth="yes"/>
      <point x="248" y="1186"/>
      <point x="78" y="943"/>
      <point x="78" y="598" type="curve" smooth="yes"/>
      <point x="78" y="262"/>
      <point x="219" y="-16"/>
    </contour>
    <contour>
      <point x="630" y="220" type="curve" smooth="yes"/>
      <point x="472" y="220"/>
      <point x="428" y="400"/>
      <point x="428" y="586" type="curve" smooth="yes"/>
      <point x="428" y="757"/>
      <point x="441" y="952"/>
      <point x="599" y="952" type="curve" smooth="yes"/>
      <point x="690.0" y="952.0"/>
      <point x="834" y="555"/>
      <point x="834" y="555" type="curve" smooth="yes"/>
      <point x="834" y="389"/>
      <point x="781" y="220"/>
    </contour>
  </outline>
</glyph>
<glyph name="hbar" format="1">
  <advance width="1343"/>
  <unicode hex="0127"/>
  <outline>
    <contour>
      <point x="137" y="0" type="line"/>
      <point x="487" y="0" type="line"/>
      <point x="487" y="884" type="line"/>
      <point x="487" y="884"/>
      <point x="562" y="962"/>
      <point x="701" y="962" type="curve" smooth="yes"/>
      <point x="790" y="962"/>
      <point x="865" y="888"/>
      <point x="865" y="747" type="curve" smooth="yes"/>
      <point x="865" y="0" type="line"/>
      <point x="1215" y="0" type="line"/>
      <point x="1215" y="723" type="line" smooth="yes"/>
      <point x="1215" y="1071"/>
      <point x="1008" y="1196"/>
      <point x="810" y="1196" type="curve" smooth="yes"/>
      <point x="677" y="1196"/>
      <point x="548" y="1140"/>
      <point x="487" y="1057" type="curve"/>
      <point x="487" y="1298" type="line"/>
      <point x="793" y="1298" type="line"/>
      <point x="793" y="1460" type="line"/>
      <point x="487" y="1460" type="line"/>
      <point x="487" y="1638" type="line"/>
      <point x="137" y="1578" type="line"/>
      <point x="137" y="1460" type="line"/>
      <point x="-1" y="1460" type="line"/>
      <point x="-1" y="1298" type="line"/>
      <point x="137" y="1298" type="line"/>
    </contour>
  </outline>
</glyph>
<glyph name="Lslash" format="1">
  <advance width="1200"/>
  <unicode hex="0141"/>
  <outline>
    <contour>
      <point x="149" y="0" type="line"/>
      <point x="1200" y="0" type="line"/>
      <point x="1200" y="268" type="line"/>
      <point x="517" y="268" type="line"/>
      <point x="517" y="899.312" type="line"/>
      <point x="726" y="1039" type="line"/>
      <point x="726" y="1301" type="line"/>
      <point x="517" y="1161.31" type="line"/>
      <point x="517" y="1578" type="line"/>
      <point x="149" y="1578" type="line"/>
      <point x="149" y="939.72" type="line"/>
      <point x="0" y="850" type="line"/>
      <point x="0" y="588" type="line"/>
      <point x="149" y="677.72" type="line"/>
    </contour>
  </outline>
</glyph>
<glyph name="lslash" format="1">
  <advance width="643"/>
  <unicode hex="0142"/>
  <outline>
    <contour>
      <point x="152" y="0" type="line"/>
      <point x="503" y="0" type="line"/>
      <point x="503" y="898.877" type="line"/>
      <point x="645" y="969" type="line"/>
      <point x="645" y="1231" type="line"/>
      <point x="503" y="1160.88" type="line"/>
      <point x="503" y="1638" type="line"/>
      <point x="152" y="1578" type="line"/>
      <point x="152" y="987.543" type="line"/>
      <point x="-3" y="911" type="line"/>
      <point x="-3" y="649" type="line"/>
      <point x="152" y="725.543" type="line"/>
    </contour>
  </outline>
</glyph>
<glyph name="hungarumlaut" format="1">
  <advance width="1097"/>
  <unicode hex="02DD"/>
  <outline>
    <contour>
      <point x="378" y="1298" type="line"/>
      <point x="696" y="1840" type="line"/>
      <point x="424" y="1985" type="line"/>
      <point x="261" y="1372" type="line"/>
    </contour>
    <contour>
      <point x="768" y="1298" type="line"/>
      <point x="1166" y="1840" type="line"/>
      <point x="884" y="1985" type="line"/>
      <point x="641" y="1372" type="line"/>
    </contour>
    <contour>
      <point x="713.5" y="1164" type="move" name="_top"/>
    </contour>
  </outline>
</glyph>
<glyph name="uni030F" format="1">
  <advance width="1097"/>
  <unicode hex="030F"/>
  <outline>
    <contour>
      <point x="298" y="1298" type="line"/>
      <point x="425" y="1372" type="line"/>
      <point x="182" y="1985" type="line"/>
      <point x="-100" y="1840" type="line"/>
    </contour>
    <contour>
      <point x="688" y="1298" type="line"/>
      <point x="805" y="1372" type="line"/>
      <point x="642" y="1985" type="line"/>
      <point x="370" y="1840" type="line"/>
    </contour>
    <contour>
      <point x="352.5" y="1164" type="move" name="_top"/>
    </contour>
  </outline>
</glyph>
<glyph name="uni0326" format="1">
  <advance width="722"/>
  <unicode hex="0326"/>
  <outline>
    <contour>
      <point x="225" y="-834" type="line"/>
      <point x="393" y="-784"/>
      <point x="580" y="-714"/>
      <point x="580" y="-474" type="curve" smooth="yes"/>
      <point x="580" y="-112" type="line"/>
      <point x="162" y="-112" type="line"/>
      <point x="162" y="-527" type="line"/>
      <point x="340" y="-527" type="line"/>
      <point x="340" y="-629"/>
      <point x="290" y="-674"/>
      <point x="163" y="-720" type="curve"/>
    </contour>
    <contour>
      <point x="371" y="0" type="move" name="_bottom"/>
    </contour>
  </outline>
</glyph>
<glyph name="dagger" format="1">
  <advance width="1157"/>
  <unicode hex="2020"/>
  <outline>
    <contour>
      <point x="397" y="0" type="line"/>
      <point x="766" y="0" type="line"/>
      <point x="766" y="975" type="line"/>
      <point x="1168" y="975" type="line"/>
      <point x="1168" y="1243" type="line"/>
      <point x="766" y="1243" type="line"/>
      <point x="766" y="1641.2" type="line"/>
      <point x="397" y="1641.2" type="line"/>
      <point x="397" y="1243" type="line"/>
      <point x="-12" y="1243" type="line"/>
      <point x="-12" y="975" type="line"/>
      <point x="397" y="975" type="line"/>
    </contour>
  </outline>
</glyph>
<glyph name="integral" format="1">
  <advance width="1278"/>
  <unicode hex="222B"/>
  <outline>
    <contour>
      <point x="293.952" y="-498" type="curve" smooth="yes"/>
      <point x="570.952" y="-498"/>
      <point x="720.136" y="-325"/>
      <point x="754.294" y="0" type="curve" smooth="yes"/>
      <point x="877.636" y="1164" type="line" smooth="yes"/>
      <point x="896.765" y="1346"/>
      <point x="948.756" y="1403"/>
      <point x="1039.76" y="1403" type="curve" smooth="yes"/>
      <point x="1094.76" y="1403"/>
      <point x="1142.92" y="1395"/>
      <point x="1186.13" y="1378" type="curve"/>
      <point x="1212.93" y="1633" type="line"/>
      <point x="1137.82" y="1651"/>
      <point x="1062.98" y="1662"/>
      <point x="986.978" y="1662" type="curve" smooth="yes"/>
      <point x="709.978" y="1662"/>
      <point x="560.794" y="1489"/>
      <point x="526.636" y="1164" type="curve" smooth="yes"/>
      <point x="526.636" y="1164"/>
      <point x="403.294" y="0.0"/>
      <point x="403.294" y="0" type="curve"/>
      <point x="384.165" y="-182"/>
      <point x="332.174" y="-239"/>
      <point x="241.174" y="-239" type="curve" smooth="yes"/>
      <point x="186.174" y="-239"/>
      <point x="138.015" y="-231"/>
      <point x="94.8018" y="-214" type="curve"/>
      <point x="68" y="-469" type="line"/>
      <point x="143.108" y="-487"/>
      <point x="217.952" y="-498"/>
    </contour>
  </outline>
</glyph>
